name C:\Users\u0101727\Documents\MyRepositories\paper-ad\trackingsimulations_3d\Results\TrackSim\IK_c17.mot
datacolumns 32
datarows 8
range 3.45000000 3.56200000
endheader
time	pelvis_tilt	pelvis_list	pelvis_rotation	pelvis_tx	pelvis_ty	pelvis_tz	hip_flexion_l	hip_adduction_l	hip_rotation_l	hip_flexion_r	hip_adduction_r	hip_rotation_r	knee_angle_l	knee_angle_r	ankle_angle_l	ankle_angle_r	subtalar_angle_l	subtalar_angle_r	lumbar_extension	lumbar_bending	lumbar_rotation	arm_flex_l	arm_add_l	arm_rot_l	arm_flex_r	arm_add_r	arm_rot_r	elbow_flex_l	elbow_flex_r	pro_sup_l	pro_sup_r	
          3.45000000	         -2.16705974	          4.38834646	          4.40498166	         -0.50796918	          0.94267985	         -0.23006465	         15.04657684	          9.17511589	          3.45596167	         13.64282059	         -1.82171516	         -2.18042579	        -22.13767309	        -65.11251516	          5.21895499	        -12.89330750	          5.74578818	        -13.56776546	         -4.52014022	         -4.06518063	         -3.33858588	         -1.83113335	        -15.69834465	         17.87254397	         -4.80742514	        -16.91169295	         12.13822837	         21.28322821	         23.55488250	         86.51662706	         86.51662706	
          3.46600000	         -2.19566852	          4.17194682	          4.35143590	         -0.48966757	          0.94556672	         -0.23063091	         13.64947476	          8.92793884	          3.80693601	         16.82598571	         -1.90178311	         -2.03924532	        -21.99022825	        -66.37223048	          6.86705734	        -10.76133249	          5.94490814	        -12.84485152	         -4.69720622	         -3.91539702	         -3.83183248	         -1.63467904	        -15.90513794	         17.29229937	         -5.00252310	        -16.82724165	         12.39900604	         22.63004963	         23.04672390	         86.51662706	         86.51662706	
          3.48200000	         -2.17230465	          3.88951647	          4.28542704	         -0.47127657	          0.94824450	         -0.23112736	         12.13448338	          8.59145740	          4.13024057	         19.73334777	         -1.90470371	         -1.95391101	        -21.64485888	        -66.65524700	          8.03734557	         -8.84319759	          6.01374449	        -11.86722852	         -4.89024276	         -3.66475486	         -4.29332714	         -1.42497905	        -16.08887151	         16.78401833	         -5.27306028	        -16.76393107	         12.44765323	         23.94310902	         22.62225955	         86.51662706	         86.51662706	
          3.49800000	         -2.11626756	          3.52249859	          4.32417166	         -0.45277785	          0.95057305	         -0.23173381	         10.56313886	          8.19477843	          4.56585890	         22.31095406	         -1.83529461	         -2.03667651	        -21.19022905	        -65.94861826	          8.76135185	         -7.16967537	          5.85375090	        -10.92983142	         -5.08571444	         -3.28663846	         -4.82364273	         -1.19928765	        -16.25372207	         16.38407415	         -5.63934892	        -16.72178634	         12.19923148	         25.21542155	         22.32784271	         86.51662706	         86.51662706	
          3.51400000	         -2.03714576	          3.10816645	          4.43773019	         -0.43414464	          0.95244116	         -0.23238449	          8.94905281	          7.75388741	          5.06082476	         24.54264826	         -1.73896629	         -2.25778965	        -20.66272165	        -64.30876259	          9.21843463	         -5.57655620	          5.56677983	        -10.19485863	         -5.27744442	         -2.83274701	         -5.38729872	         -0.96499288	        -16.42038000	         16.08033813	         -6.07428955	        -16.68415691	         11.69883336	         26.45780696	         22.12052699	         86.51662706	         86.51662706	
          3.53000000	         -1.94105273	          2.68886187	          4.58059145	         -0.41535669	          0.95376301	         -0.23297683	          7.29616676	          7.28066617	          5.52285796	         26.42332083	         -1.64615791	         -2.56765830	        -20.08832810	        -61.80154823	          9.59232790	         -3.94346723	          5.29959932	         -9.91727784	         -5.46416247	         -2.36353864	         -5.94091051	         -0.72879702	        -16.60620857	         15.84738175	         -6.53370213	        -16.63310152	         11.04585735	         27.66747606	         21.93225042	         86.51662706	         86.51662706	
          3.54600000	         -1.82770150	          2.30371020	          4.72417731	         -0.39638027	          0.95449534	         -0.23345593	          5.58855282	          6.79512646	          5.88768755	         27.93756661	         -1.58489747	         -2.92079013	        -19.46029636	        -58.49574661	          9.97718064	         -2.34676973	          5.15744778	        -10.06237111	         -5.65089336	         -1.92996231	         -6.46284904	         -0.49550149	        -16.81602642	         15.66859766	         -6.98092136	        -16.55798756	         10.33379959	         28.82073317	         21.71079913	         86.51662706	         86.51662706	
          3.56200000	         -1.69773011	          1.98057907	          4.86649568	         -0.37718772	          0.95463009	         -0.23382926	          3.81413584	          6.32260480	          6.14622589	         29.08086268	         -1.58371950	         -3.29574831	        -18.76776917	        -54.49741646	         10.39139726	         -1.18005834	          5.17593050	        -10.27011219	         -5.84181041	         -1.56394343	         -6.95747703	         -0.26577363	        -17.04318618	         15.53903787	         -7.39199241	        -16.45644308	          9.63459367	         29.88120915	         21.42845882	         86.51662706	         86.51662706	
